<?xml version="1.0" encoding="UTF-8"?>
<svg width="300px" height="300px" viewBox="-9 0 100 90" version="1.1" xmlns="http://www.w3.org/2000/svg" xmlns:xlink="http://www.w3.org/1999/xlink">
    <!-- Generator: Sketch 41.2 (35397) - http://www.bohemiancoding.com/sketch -->
    <title>pingdom-dark</title>
    <desc>Created with Sketch.</desc>
    <defs></defs>
    <g id="Brand-Assets" stroke="none" stroke-width="1" fill="none" fill-rule="evenodd">
        <g id="pingdom-dark" fill="#282828">
            <g id="Group">
                <path d="M39.2886957,39.0969231 L39.9991304,38.8984615 C45.291538,37.311768 50.4833197,35.406372 55.546087,33.1926923 C60.6816082,31.1764304 65.5003312,28.4304317 69.853913,25.0392308 C74.4758258,21.3591675 77.9545347,16.437004 79.8826087,10.8492308 C80.298389,9.92944709 80.6034292,8.96343407 80.7913043,7.97153846 C73.8356522,17.4811538 46.2608696,18.4734615 46.2608696,18.4734615 L52.7704348,12.5030769 C33.8261182,12.568387 15.375875,18.5589313 0,29.6369231 C10.4141134,30.7536717 20.2095471,35.1354004 27.9878261,42.1565385 C31.7217391,40.9988462 35.5382609,40.1719231 39.2886957,39.13 L39.2886957,39.0969231 Z M82.526087,38.1542308 C64.9813117,37.3405184 47.4284684,39.5788125 30.6478261,44.7696154 C34.1727268,48.4514507 37.1145431,52.6511282 39.3713043,57.2230769 C53.266087,49.4830769 72.5304348,39.5930769 82.526087,38.1873077 L82.526087,38.1542308 Z M41.1226087,61.1757692 C42.7706677,65.4208989 43.8269636,69.8729623 44.2617391,74.4065385 L68.4991304,49.4830769 L41.1226087,61.1757692 L41.1226087,61.1757692 Z M53.8443478,73.3976923 L53.8443478,73.1330769 C53.840194,73.0264403 53.8058116,72.9231887 53.7452174,72.8353846 C53.6899282,72.7525512 53.5969119,72.7028923 53.4973913,72.7030769 L53.7121739,72.7030769 C53.8439097,72.615332 53.9193513,72.4642961 53.9104348,72.3061538 C53.9333479,72.0927957 53.8118929,71.8901659 53.6130435,71.81 C53.4438717,71.7774024 53.2700413,71.7774024 53.1008696,71.81 L52.4234783,71.81 L52.4234783,73.6788462 L52.7869565,73.6788462 L52.7869565,73.0007692 L53.0513043,73.0007692 C53.1652614,72.9727376 53.2843038,72.9727376 53.3982609,73.0007692 C53.5113026,73.0924927 53.5677886,73.2369919 53.5469565,73.3811538 L53.5469565,73.6623077 L53.9104348,73.6623077 L53.8443478,73.3976923 L53.8443478,73.3976923 Z M52.7704348,71.9423077 L53.0017391,71.9423077 C53.1267534,71.9133437 53.2567249,71.9133437 53.3817391,71.9423077 C53.4543824,71.9957029 53.492342,72.0843649 53.4808696,72.1738462 C53.4950497,72.2900208 53.426187,72.4003126 53.3156522,72.4384615 C53.2171474,72.4542284 53.1167656,72.4542284 53.0182609,72.4384615 L52.7704348,72.4384615 L52.7704348,71.81 L52.7704348,71.9423077 L52.7704348,71.9423077 Z" id="Shape1"></path>
            </g>
        </g>
    </g>
</svg>
