<svg xmlns="http://www.w3.org/2000/svg" width="157" height="22" viewBox="0 0 157 22" fill="none">
<g clip-path="url(#clip0_1250_18211)">
<path d="M18.6921 10.919C18.6921 8.45602 17.4406 7.52832 14.8972 7.52832C13.3029 7.52832 12.0513 8.07314 11.3245 8.55771V10.5964C12.0112 10.0917 13.2628 9.44649 14.6148 9.44649C15.7647 9.44649 16.2894 9.85072 16.2894 10.9404V11.5053H15.9065C12.2334 11.5053 10.5977 12.7167 10.5977 14.7755C10.5977 16.8342 11.8492 17.9841 13.7059 17.9841C15.1182 17.9841 15.7245 17.5196 16.189 17.0351H16.2894C16.3095 17.2975 16.3898 17.6402 16.4714 17.8423H18.8127C18.7323 17.015 18.6921 16.1877 18.6921 15.3592V10.919ZM16.2907 15.4194C15.9881 15.8638 15.4232 16.2266 14.5746 16.2266C13.5653 16.2266 13.0607 15.6216 13.0607 14.7127C13.0607 13.5214 13.8879 13.0983 15.9467 13.0983H16.2894V15.4194H16.2907Z" fill="#FFBC0D"/>
<path d="M9.14273 3.81494L6.15625 10.5963H8.63933L11.6258 3.81494H9.14273Z" fill="#FFBC0D"/>
<path d="M2.54334 3.81494H0L4.60211 13.8264V17.8435H7.04377V15.4621C7.04377 13.6657 6.82157 13.1409 6.13489 11.6471L2.54334 3.81494Z" fill="#FFBC0D"/>
<path d="M58.9972 17.8422L55.6906 12.6086L58.5528 7.69019H56.1513L54.4076 10.757L52.4781 7.69019H49.7729L52.8497 12.5635L49.6523 17.8422H52.094L54.1365 14.4189L56.2919 17.8422H58.9972Z" fill="#FFBC0D"/>
<path d="M45.0501 7.48804C42.1239 7.48804 40.7305 9.72884 40.7305 12.7969C40.7305 16.3295 42.4666 18.0443 45.5347 18.0443C47.0687 18.0443 48.1985 17.64 48.9053 17.1567V15.1984C48.1584 15.703 46.9068 16.1474 45.7368 16.1474C43.9868 16.1474 43.3077 15.3227 43.2236 13.6242H49.007V12.3525C49.007 8.81996 47.4529 7.48804 45.0514 7.48804H45.0501ZM45.01 9.38487C46.2013 9.38487 46.5641 10.3741 46.5641 11.6458V11.8479H43.2186C43.2751 10.2423 43.8601 9.38487 45.01 9.38487Z" fill="#FFBC0D"/>
<path d="M36.7953 8.87777C36.1814 7.96764 35.3014 7.48809 34.2519 7.48809C31.9308 7.48809 30.3164 9.44644 30.3164 12.8371C30.3164 16.2278 31.8906 18.0443 34.1515 18.0443C35.2801 18.0443 36.2178 17.5221 36.8518 16.5279L36.9773 17.8435H39.198V3.81494H36.7965V8.87777H36.7953ZM34.7566 16.1475C33.4447 16.1475 32.7982 15.1382 32.7982 12.8371C32.7982 10.5361 33.4849 9.38618 34.857 9.38618C36.1488 9.38618 36.7953 10.4156 36.7953 12.7568C36.7953 15.098 36.1086 16.1475 34.7566 16.1475Z" fill="#FFBC0D"/>
<path d="M25.936 7.52832C24.5024 7.52832 23.655 8.05306 23.1704 8.53762H23.0499L22.9897 7.69026H20.6484V17.8423H23.0499V10.5562C23.4943 10.0114 24.1998 9.54692 25.0685 9.54692C25.9372 9.54692 26.3 9.90972 26.3 10.6767V17.8423H28.7015V10.4345C28.7015 8.41585 27.8943 7.52832 25.936 7.52832Z" fill="#FFBC0D"/>
<path d="M84.3424 8.3856L84.2566 7.959L80.6288 7.32521L82.7369 4.47313L82.4917 4.20499L79.3909 5.69197L79.7831 1.74294L79.4644 1.56011L77.577 4.75346L75.4566 0H75.0889L75.5915 4.59501L70.26 0.329086L69.8065 0.463157L73.9123 5.61884L65.7864 2.91302L65.4187 3.32742L72.6745 7.45928L62.6611 8.28809L62.5508 8.90969L72.9564 10.0432L64.2789 17.2222L64.6466 17.7219L74.9786 12.103L72.9318 22H73.5569L77.5157 12.6881L79.9302 19.9767L80.3591 19.6476L79.3664 12.2371L83.1291 16.503L83.3742 16.113L80.494 10.8233L84.514 12.3102L84.5508 11.8593L80.9474 9.20222L84.3424 8.3856Z" fill="#FFBC0D"/>
<path d="M118.115 14.2696C117.368 15.0366 116.621 15.481 115.491 15.481C114.361 15.481 113.897 14.896 113.897 13.8064V7.87231H108.992V14.0486C108.992 16.8744 110.647 18.1461 113.473 18.1461C115.249 18.1461 116.783 17.7419 117.994 16.8543H118.115L118.195 17.8436H123.019V7.87231H118.115V14.2708V14.2696Z" fill="#FFBC0D"/>
<path d="M97.7162 11.8982L94.2778 4.07739H88.4844V17.8423H90.685V7.71791L95.2055 17.8423H97.7087L102.169 7.7154V17.8423H107.094V4.07739H101.059L97.7162 11.8982Z" fill="#FFBC0D"/>
<path d="M132.646 11.4439C130.992 11.2418 129.518 11.1614 129.518 10.4145C129.518 9.86969 130.285 9.68767 131.597 9.68767C133.131 9.68767 135.432 9.99021 136.36 10.5752V8.31432C134.926 7.82975 133.292 7.56738 131.092 7.56738C126.592 7.56738 124.613 8.97965 124.613 11.0183C124.613 13.057 126.107 13.8642 127.984 14.2484C130.185 14.6927 132.142 14.6526 132.142 15.3179C132.142 15.8627 131.355 16.0448 129.7 16.0448C127.863 16.0448 125.865 15.682 124.675 15.0756V17.3164C125.26 17.5587 127.178 18.1437 130.387 18.1437C134.706 18.1437 137.048 17.0942 137.048 14.7329C137.048 12.2298 134.706 11.705 132.648 11.4426L132.646 11.4439Z" fill="#FFBC0D"/>
<path d="M152.71 9.68889C154.427 9.68889 155.758 10.2337 156.606 10.7183V8.51765C155.919 8.11342 154.123 7.5686 151.822 7.5686C147.179 7.5686 144.758 9.78932 144.758 12.8361C144.758 15.7221 147.119 18.1449 151.822 18.1449C153.719 18.1449 155.657 17.7206 156.606 17.1959V14.9752C155.617 15.6003 154.164 16.0046 152.71 16.0046C150.712 16.0046 149.743 14.6726 149.743 12.8963C149.743 11.12 150.752 9.68763 152.71 9.68763V9.68889Z" fill="#FFBC0D"/>
<path d="M143.386 7.87231H138.461V17.8235H143.386V7.87231Z" fill="#FFBC0D"/>
<path d="M140.902 3.85522C139.428 3.85522 138.238 4.4603 138.238 5.4696C138.238 6.47891 139.43 7.08398 140.902 7.08398C142.456 7.08398 143.607 6.47891 143.607 5.4696C143.607 4.4603 142.436 3.85522 140.902 3.85522Z" fill="#FFBC0D"/>
</g>
<defs>
<clipPath id="clip0_1250_18211">
<rect width="156.606" height="22" fill="white"/>
</clipPath>
</defs>
</svg>